<?xml version="1.0" encoding="UTF-8"?>
<svg width="106px" height="28px" viewBox="0 0 106 28" version="1.1" xmlns="http://www.w3.org/2000/svg" xmlns:xlink="http://www.w3.org/1999/xlink">
    <title>Logo/UpMerch Modern - Dark</title>
    <g id="Design-Preview" stroke="none" stroke-width="1" fill="none" fill-rule="evenodd">
        <g id="Logo/UpMerch-Modern---Dark" fill="#2F3436" fill-rule="nonzero">
            <g id="Asset-1">
                <path d="M53.8807901,0.566716811 L51.5323804,0.566716811 C51.0408527,0.551067477 50.6351474,0.887528166 50.5649292,1.27876153 C50.3308684,2.05340358 50.0343914,2.82022096 49.6911023,3.56356435 L45.1893334,13.422645 C45.0410949,13.7904044 44.8850544,14.1972871 44.7212118,14.6432931 C44.5729733,14.2207611 44.4091308,13.7904044 44.2296842,13.3678723 L39.7669255,3.55573968 C39.4314384,2.82804563 39.1271593,2.06905291 38.8774945,1.30223553 C38.8306824,1.09096951 38.713652,0.895352833 38.5420074,0.762333491 C38.3625608,0.621489481 38.1363021,0.551067477 37.9022413,0.566716811 L35.5772376,0.566716811 C35.3197708,0.551067477 35.0623039,0.644963483 34.8750553,0.824930828 C34.6878067,1.01272284 34.5941824,1.27093686 34.6097864,1.52915088 L34.6097864,21.5681236 C34.5941824,21.8263376 34.6878067,22.0845516 34.8750553,22.2723436 C35.0466999,22.4366616 35.2729586,22.5305576 35.5070194,22.5305576 C35.5304255,22.5305576 35.5460295,22.5305576 35.5694356,22.5305576 L36.9503941,22.5305576 C37.215663,22.5540316 37.4653279,22.452311 37.6525765,22.2723436 C37.8398251,22.0845516 37.9334494,21.8263376 37.9178453,21.5681236 L37.9178453,8.51657868 C37.9178453,8.06274798 37.9178453,7.60891729 37.9022413,7.15508659 L41.9436907,16.0047852 C42.2635737,16.6698819 42.6848831,17.7340366 43.0827864,18.8686134 C43.1920148,19.2911454 43.550908,19.5571841 44.0190295,19.5571841 L45.4311962,19.5571841 C45.8993177,19.5571841 46.2582109,19.2911454 46.3674393,18.8686134 C46.6951244,17.937478 47.1320378,16.8029012 47.4753269,15.9891359 L51.5089743,7.26463193 C51.4933702,7.67933929 51.4933702,8.09404665 51.4933702,8.50875401 L51.4933702,21.5681236 C51.4777662,21.8263376 51.5713905,22.0923763 51.7586391,22.2723436 C51.9458877,22.452311 52.2033546,22.546207 52.4530194,22.5305576 L53.8651861,22.5305576 C54.1304549,22.5540316 54.3801198,22.452311 54.5673684,22.2723436 C54.754617,22.0845516 54.8482413,21.8263376 54.8326373,21.5681236 L54.8326373,1.53697554 C54.8560433,1.27876153 54.754617,1.01272284 54.5751704,0.832755496 C54.3879218,0.644963483 54.1304549,0.551067477 53.8729881,0.574541478 L53.8807901,0.566716811 Z" id="Path"></path>
                <path d="M69.562862,11.6386209 C69.562862,8.49310468 67.2222542,6.53693788 63.4460737,6.53693788 C58.9677109,6.53693788 56.1823877,9.65115543 56.1823877,14.6667671 C56.1823877,19.6823788 58.975513,22.827895 63.4772818,22.827895 C64.7880222,22.827895 65.8803058,22.6714016 66.9101732,22.3505903 L67.8074062,22.0923763 C68.1350912,22.0376036 68.3145378,21.8654609 68.4159642,21.7246169 C68.5173905,21.5837729 68.6266189,21.3412082 68.5642027,20.9969229 L68.1975074,19.7606254 C68.1428933,19.5024114 67.9790507,19.2754961 67.7449899,19.1424767 C67.5187312,19.0094574 67.2378583,18.9781587 66.9959955,19.0564054 L66.0831585,19.3302687 C65.326362,19.5728334 64.4759411,19.6902034 63.4772818,19.6902034 C61.5657855,19.6902034 60.2706492,18.71212 59.7713196,16.9046219 L64.9674688,16.0595579 C68.0180609,15.5587792 69.562862,14.0642677 69.562862,11.6229716 L69.562862,11.6386209 Z M66.2782091,11.6699196 C66.2782091,11.9829062 66.2782091,12.8044963 64.4135249,13.117483 L59.5294568,13.939073 C59.7947257,11.0987189 61.097664,9.66680476 63.4070636,9.66680476 C64.4759411,9.66680476 66.2704071,9.92501878 66.2704071,11.6699196 L66.2782091,11.6699196 Z" id="Shape"></path>
                <path d="M79.2139679,7.49937195 C79.2295719,7.24115793 79.1359476,6.97511924 78.948699,6.7951519 C78.7614504,6.60735989 78.4961815,6.50563921 78.2309126,6.53693788 C76.2570001,6.62300922 74.7356051,7.32722927 73.518489,8.7513187 L73.4170627,7.65586529 C73.3312404,7.14726192 72.9645452,6.83427523 72.4652156,6.83427523 L71.5601806,6.83427523 C71.2871097,6.8186259 71.0452469,6.91252191 70.8658003,7.09248925 C70.6785516,7.28028127 70.5771253,7.53849528 70.5927294,7.80453397 L70.5927294,21.5681236 C70.5771253,21.8341622 70.6707496,22.0923763 70.8579982,22.2723436 C71.0452469,22.452311 71.2949117,22.5540316 71.5601806,22.5305576 L72.917733,22.5305576 C72.917733,22.5305576 72.9567432,22.5305576 72.9801493,22.5305576 C73.21421,22.5305576 73.4482708,22.4366616 73.6199154,22.2723436 C73.807164,22.0845516 73.9007883,21.8263376 73.8851842,21.5681236 L73.8851842,16.9202713 C73.8851842,13.7121577 74.6497828,9.86242144 78.2777248,9.66680476 C78.5351916,9.68245409 78.7770544,9.58073342 78.956501,9.40076608 C79.1437496,9.21297406 79.2373739,8.95476005 79.2217699,8.69654603 L79.2217699,7.49937195 L79.2139679,7.49937195 Z" id="Path"></path>
                <path d="M90.9248086,19.7215021 C90.8623924,19.4632881 90.6829458,19.2363727 90.441083,19.1190027 C90.2070222,19.0016327 89.9339513,18.9938081 89.6998905,19.0877041 L88.8728758,19.3224441 C88.1004752,19.5650088 87.3046686,19.6980281 86.508862,19.7136774 C83.0447625,19.7136774 82.3191741,16.9750439 82.3191741,14.6745918 C82.3191741,11.3491082 83.7469448,9.66680476 86.5712782,9.66680476 L86.5712782,9.66680476 C87.2890646,9.66680476 87.9990489,9.78417477 88.7090333,10.0345641 L89.5594541,10.2771288 C90.0431797,10.4101481 90.5425093,10.1362848 90.6907478,9.66680476 L91.0808491,8.46963068 C91.1744734,8.18794266 91.1510673,7.91407931 91.0184329,7.68716396 C90.8857984,7.46807328 90.6595397,7.3194046 90.456687,7.28810593 L89.528246,7.02206725 C88.4281603,6.69343123 87.5075213,6.54476255 86.5322681,6.54476255 C81.8354485,6.54476255 79.0267192,9.58855809 79.0267192,14.6745918 C79.0267192,19.7606254 81.8198445,22.8357197 86.508862,22.8357197 C87.5933436,22.827895 88.6622211,22.6557523 89.6686824,22.334941 L90.6673417,22.0532529 C91.1978795,21.8732856 91.4397423,21.3803316 91.2680977,20.8717282 L90.9170066,19.7293268 L90.9248086,19.7215021 Z" id="Path"></path>
                <path d="M99.9985646,6.53693788 C98.2587128,6.53693788 96.815338,7.05336592 95.6762423,8.07839732 C95.7230544,7.53849528 95.7464605,6.99076858 95.7386585,6.45086654 L95.7386585,0.965774838 C95.7542625,0.70756082 95.6606382,0.441522136 95.4733896,0.26155479 C95.286141,0.0815874448 95.0442782,-0.0201332288 94.7712073,0.00334077282 L93.4136548,0.00334077282 C93.1483859,-0.0201332288 92.8987211,0.0815874448 92.7114725,0.26155479 C92.5242239,0.449346803 92.4305996,0.70756082 92.4462036,0.965774838 L92.4462036,21.5681236 C92.4305996,21.8263376 92.5242239,22.0923763 92.7114725,22.2723436 C92.8987211,22.452311 93.1483859,22.5540316 93.4136548,22.5305576 L94.7712073,22.5305576 C94.7712073,22.5305576 94.8102174,22.5305576 94.8336235,22.5305576 C95.0676843,22.5305576 95.301745,22.4366616 95.4655876,22.2723436 C95.6528362,22.0845516 95.7542625,21.8263376 95.7386585,21.5602989 L95.7386585,15.0188771 C95.7386585,13.0157623 96.2691962,9.65115543 99.811316,9.65115543 C102.33137,9.65115543 102.705868,11.8498869 102.705868,13.1566063 L102.705868,21.5524742 C102.690263,21.8106882 102.783888,22.0767269 102.971136,22.2566943 C103.158385,22.4366616 103.400248,22.5383823 103.673319,22.5149083 L105.030871,22.5149083 C105.288338,22.5305576 105.545805,22.4366616 105.733054,22.2566943 C105.920302,22.0689023 106.013926,21.8106882 105.998322,21.5524742 L105.998322,13.0079377 C105.998322,9.00953272 103.696725,6.52128855 99.9985646,6.52128855 L99.9985646,6.53693788 Z" id="Path"></path>
                <g id="Group" transform="translate(0, 0.6068)">
                    <path d="M12.4208251,0.382443131 L12.389617,0.429391134 C12.3037947,0.570235144 12.2569825,0.726728488 12.2569825,0.891046499 L12.2569825,12.4637293 C12.2569825,15.7500895 10.7433895,17.7062563 8.1375129,17.7062563 C5.53163629,17.7062563 4.01804328,15.7579142 4.01804328,12.4637293 L4.01804328,1.76740922 L1.34975046,0.132053781 C0.936243095,-0.126160237 0.39010129,0.00685910567 0.132634438,0.421566467 C0.0468121548,0.562410477 0,0.71890382 0,0.883221832 L0,12.4715539 C0,18.0114183 2.97257183,21.1412852 8.12190885,21.1412852 C13.2712459,21.1412852 16.2126096,18.0270677 16.2126096,12.4637293 L16.2126096,1.76740922 L13.5911289,0.139878448 C13.1932256,-0.102686235 12.6782919,-0.000965561529 12.413023,0.374618464 L12.4208251,0.382443131 Z" id="Path"></path>
                    <path d="M26.5580958,6.64217689 C25.1771372,6.64217689 24.1160617,6.96298824 23.1017984,7.79240297 L22.99257,7.88629897 C22.5166464,8.308831 22.0095148,8.355779 21.6116114,7.81587697 L21.5726013,7.7611043 L21.1200838,7.04123491 L21.0966777,6.99428691 C21.0966777,6.99428691 21.0888757,6.97863758 21.0888757,6.97863758 L18.9511206,6.97863758 L18.9511206,26.5931943 C18.9511206,27.0350221 19.3092928,27.3931943 19.7511206,27.3931943 L22.0599356,27.3931943 C22.5017634,27.3931943 22.8599356,27.0350221 22.8599356,26.5931943 L22.8599356,20.2727471 L22.8599356,20.2727471 L24.194082,20.8282985 C24.7402238,21.0552139 25.2629595,21.1569345 26.0431621,21.1569345 C30.1158196,21.1569345 32.5968638,18.4104764 32.5968638,13.8878187 C32.5968638,9.36516107 30.2874641,6.65000156 26.5580958,6.65000156 L26.5580958,6.64217689 Z M25.6842689,17.831451 C24.9976906,17.831451 24.2799043,17.6984316 23.7649706,17.455867 L23.6635442,17.4089189 L22.7975194,17.0255103 L22.7975194,13.410514 C22.7975194,11.3291525 23.8663969,9.99895911 25.6530608,9.99895911 C27.6347754,9.99895911 28.8050792,11.5012952 28.8050792,13.8956434 C28.8050792,16.2899915 27.6737855,17.8471003 25.6764669,17.8471003 L25.6842689,17.831451 Z" id="Shape"></path>
                </g>
            </g>
        </g>
    </g>
</svg>